<svg id="svg" version="1.1" xmlns="http://www.w3.org/2000/svg"
  xmlns:xlink="http://www.w3.org/1999/xlink" width="400" height="300" viewBox="0, 0, 400,300">
  <g id="svgg">
    <path id="path0"
      d="M69.617 88.672 L 69.617 103.526 129.932 103.526 L 190.248 103.526 190.248 88.672 L 190.248 73.818 129.932 73.818 L 69.617 73.818 69.617 88.672 M208.627 143.361 L 208.702 212.903 231.733 212.980 L 254.764 213.057 254.764 188.331 C 254.764 166.061,254.811 163.587,255.238 163.423 C 255.499 163.323,265.222 163.241,276.844 163.241 L 297.974 163.241 297.974 149.739 L 297.974 136.238 276.444 136.161 L 254.914 136.084 254.837 104.951 L 254.761 73.818 231.656 73.818 L 208.551 73.818 208.627 143.361 M262.638 87.397 L 262.716 100.975 274.869 101.125 L 287.022 101.275 287.101 110.353 L 287.181 119.430 310.282 119.430 L 333.383 119.430 333.383 96.624 L 333.383 73.818 297.971 73.818 L 262.560 73.818 262.638 87.397 M106.001 162.266 L 106.077 212.903 130.008 212.980 L 153.938 213.057 153.938 162.342 L 153.938 111.628 129.932 111.628 L 105.925 111.628 106.001 162.266 "
      stroke="none" fill="#049c9c" fill-rule="evenodd"></path>
    <path id="path1"
      d="M0.000 150.038 L 0.000 300.075 200.000 300.075 L 400.000 300.075 400.000 150.038 L 400.000 0.000 200.000 0.000 L 0.000 0.000 0.000 150.038 M190.814 73.327 C 191.059 73.623,191.132 77.941,191.076 88.856 L 190.998 103.976 130.101 104.052 C 81.581 104.112,69.155 104.051,68.965 103.752 C 68.597 103.172,68.657 74.191,69.028 73.499 C 69.436 72.735,190.181 72.565,190.814 73.327 M254.987 73.165 C 255.281 73.351,255.377 80.067,255.437 104.443 L 255.514 135.484 276.969 135.634 L 298.425 135.784 298.425 149.737 L 298.425 163.691 276.894 163.768 L 255.364 163.845 255.364 188.749 L 255.364 213.653 231.808 213.653 L 208.252 213.653 208.252 143.760 C 208.252 105.319,208.334 73.654,208.434 73.393 C 208.634 72.873,254.176 72.650,254.987 73.165 M333.533 96.624 L 333.533 120.180 310.428 120.258 C 288.972 120.330,287.295 120.299,286.947 119.825 C 286.667 119.445,286.572 117.085,286.572 110.524 L 286.572 101.732 274.494 101.654 L 262.416 101.575 262.337 87.622 C 262.294 79.947,262.324 73.499,262.403 73.292 C 262.518 72.993,269.805 72.931,298.041 72.992 L 333.533 73.068 333.533 96.624 M154.064 110.910 C 154.494 111.075,154.539 115.888,154.539 162.373 L 154.539 213.653 129.932 213.653 L 105.326 213.653 105.326 162.366 C 105.326 121.616,105.403 111.047,105.701 110.926 C 106.242 110.708,153.497 110.692,154.064 110.910 "
      stroke="none" fill="#F8F9FA" fill-rule="evenodd"></path>
    <path id="path2"
      d="M69.217 73.718 C 68.967 73.968,68.950 102.701,69.199 103.351 C 69.365 103.782,74.998 103.826,129.965 103.826 L 190.548 103.826 190.548 88.672 L 190.548 73.518 129.982 73.518 C 96.672 73.518,69.327 73.608,69.217 73.718 M231.582 73.743 L 254.761 73.822 254.837 104.953 L 254.914 136.084 276.519 136.087 L 298.125 136.090 276.594 136.010 L 255.064 135.930 255.064 104.724 L 255.064 73.518 231.733 73.592 L 208.402 73.665 231.582 73.743 M297.974 73.743 L 333.383 73.821 333.383 96.625 L 333.383 119.430 310.282 119.430 L 287.181 119.430 287.101 110.353 L 287.022 101.275 274.794 101.125 C 268.068 101.043,262.565 101.077,262.565 101.200 C 262.566 101.324,268.033 101.425,274.714 101.425 L 286.863 101.425 286.942 110.503 L 287.022 119.580 310.278 119.580 L 333.533 119.580 333.533 96.624 L 333.533 73.668 298.050 73.667 L 262.566 73.665 297.974 73.743 M190.248 88.672 L 190.248 103.526 129.932 103.526 L 69.617 103.526 69.617 88.672 L 69.617 73.818 129.932 73.818 L 190.248 73.818 190.248 88.672 M105.828 111.226 C 105.717 111.337,105.626 134.362,105.626 162.392 L 105.626 213.357 129.857 213.280 L 154.089 213.203 154.089 162.191 L 154.089 111.178 130.059 111.101 C 116.843 111.059,105.939 111.115,105.828 111.226 M153.938 162.342 L 153.938 213.057 130.008 212.980 L 106.077 212.903 106.001 162.266 L 105.925 111.628 129.932 111.628 L 153.938 111.628 153.938 162.342 M265.941 163.466 C 271.842 163.511,281.497 163.511,287.397 163.466 C 293.297 163.420,288.470 163.383,276.669 163.383 C 264.869 163.383,260.041 163.420,265.941 163.466 M254.764 188.301 L 254.764 213.061 231.658 212.982 C 218.950 212.939,208.552 213.005,208.552 213.128 C 208.552 213.252,219.017 213.353,231.808 213.353 L 255.064 213.353 255.064 188.447 C 255.064 174.749,254.996 163.541,254.914 163.541 C 254.831 163.541,254.764 174.683,254.764 188.301 "
      stroke="none" fill="#44b4b4" fill-rule="evenodd"></path>
    <path id="path3"
      d="M69.214 73.143 C 69.137 73.267,96.440 73.368,129.886 73.368 L 190.698 73.368 190.698 88.719 C 190.698 97.161,190.799 104.006,190.923 103.930 C 191.328 103.679,191.196 73.686,190.788 73.278 C 190.378 72.869,69.466 72.735,69.214 73.143 M220.030 73.143 C 226.425 73.188,236.890 73.188,243.286 73.143 C 249.681 73.098,244.449 73.061,231.658 73.061 C 218.867 73.061,213.635 73.098,220.030 73.143 M262.462 73.143 C 262.385 73.267,278.366 73.368,297.974 73.368 C 317.583 73.368,333.564 73.267,333.487 73.143 C 333.305 72.849,262.644 72.849,262.462 73.143 M68.856 88.672 C 68.856 96.924,68.895 100.257,68.942 96.078 C 68.989 91.899,68.989 85.148,68.942 81.074 C 68.895 77.001,68.856 80.420,68.856 88.672 M286.705 110.578 C 286.704 115.529,286.746 117.596,286.796 115.172 C 286.846 112.748,286.846 108.697,286.796 106.170 C 286.746 103.643,286.705 105.626,286.705 110.578 M117.854 110.953 C 124.497 110.998,135.368 110.998,142.011 110.953 C 148.653 110.908,143.218 110.871,129.932 110.871 C 116.647 110.871,111.212 110.908,117.854 110.953 M310.278 120.030 L 287.022 120.186 310.185 120.258 C 325.382 120.305,333.412 120.227,333.533 120.030 C 333.635 119.865,333.677 119.762,333.626 119.802 C 333.575 119.842,323.068 119.944,310.278 120.030 M298.125 149.737 C 298.125 157.463,298.226 163.721,298.350 163.645 C 298.473 163.568,298.575 157.310,298.575 149.737 C 298.575 142.165,298.473 135.907,298.350 135.830 C 298.226 135.754,298.125 142.012,298.125 149.737 "
      stroke="none" fill="#ccecec" fill-rule="evenodd"></path>
    <path id="path4"
      d="M69.214 73.443 C 69.137 73.567,96.406 73.634,129.811 73.592 L 190.548 73.515 190.548 88.671 L 190.548 103.826 129.957 103.826 C 81.766 103.826,69.336 103.749,69.216 103.451 C 69.126 103.227,69.055 103.288,69.041 103.602 C 69.018 104.101,72.046 104.124,129.857 104.052 L 190.698 103.976 190.698 88.672 L 190.698 73.368 130.026 73.293 C 96.656 73.251,69.291 73.318,69.214 73.443 M231.733 73.442 L 255.064 73.522 255.064 104.728 L 255.064 135.934 276.519 135.934 L 297.974 135.934 297.974 149.737 L 297.974 163.541 276.519 163.541 L 255.064 163.541 255.064 188.445 L 255.064 213.350 231.808 213.429 L 208.552 213.509 231.883 213.506 L 255.214 213.503 255.291 188.674 L 255.367 163.845 276.746 163.768 L 298.125 163.691 298.125 149.737 L 298.125 135.784 276.746 135.707 L 255.367 135.630 255.290 104.499 L 255.214 73.368 231.808 73.366 L 208.402 73.363 231.733 73.442 M262.403 73.593 C 262.324 73.800,262.294 80.180,262.337 87.772 L 262.416 101.575 274.719 101.581 L 287.022 101.586 274.794 101.502 L 262.566 101.419 262.566 87.466 L 262.566 73.514 298.096 73.591 C 317.638 73.634,333.564 73.567,333.487 73.443 C 333.226 73.021,262.565 73.171,262.403 73.593 M208.400 143.436 C 208.400 181.808,208.434 197.506,208.477 178.320 C 208.520 159.134,208.520 127.738,208.477 108.552 C 208.434 89.366,208.400 105.064,208.400 143.436 M105.465 111.403 C 105.386 111.609,105.357 134.666,105.399 162.641 L 105.476 213.503 129.764 213.580 C 148.995 213.641,154.101 213.579,154.290 213.280 C 154.594 212.802,154.617 111.412,154.314 111.224 C 154.190 111.148,154.089 134.062,154.089 162.144 L 154.089 213.203 129.856 213.280 L 105.623 213.357 105.700 162.192 C 105.742 134.052,105.738 111.028,105.692 111.028 C 105.646 111.028,105.543 111.197,105.465 111.403 M286.872 119.805 C 286.872 119.929,297.329 120.030,310.110 120.030 C 322.891 120.030,333.411 119.929,333.487 119.805 C 333.564 119.681,323.106 119.580,310.249 119.580 C 297.391 119.580,286.872 119.681,286.872 119.805 "
      stroke="none" fill="#c4e4e4" fill-rule="evenodd"></path>
  </g>
</svg>